# xmcd
#
# Track frame offsets:
#  150
#  13721
#  21929
#  35349
#  45285
#  58366
#  74334
#  83592
#  101950
#  111718
#  123015
#  135094
#  153734
#  165398
#
# Disc length: 2478 seconds
#
# Revision: 0
# Processed by: cddbd v1.5.2PL0 Copyright (c) Steve Scherf et al.
# Submitted via: AltoMP3_Maker 3.0
#
DISCID=b409ac0e
DTITLE=Tony Hunt - Second To One
DYEAR=1900
DGENRE=
TTITLE0=Grapefruit Juicyfruit
TTITLE1=Do Wacka Do
TTITLE2=Clyde
TTITLE3=Country Is
TTITLE4=Mamas Don't Let Your Babies Grow Up t Be Cowboys
TTITLE5=Drinkin Champagne
TTITLE6=England Swings
TTITLE7=Hello in There
TTITLE8=Honk if You Honky Tonk
TTITLE9=Six Pack Ready to Go
TTITLE10=Skip a Rope
TTITLE11=Sunday Morning Coming Down
TTITLE12=Get Rhythm 
TTITLE13=A Bushman Can't Survive
EXTD=
EXTT0=
EXTT1=
EXTT2=
EXTT3=
EXTT4=
EXTT5=
EXTT6=
EXTT7=
EXTT8=
EXTT9=
EXTT10=
EXTT11=
EXTT12=
EXTT13=
PLAYORDER=
